<?xml version="1.0" encoding="utf-8"?>
<!-- Generator: Adobe Illustrator 24.3.0, SVG Export Plug-In . SVG Version: 6.00 Build 0)  -->
<svg version="1.1" id="Layer_1" xmlns="http://www.w3.org/2000/svg" xmlns:xlink="http://www.w3.org/1999/xlink" x="0px" y="0px"
	 viewBox="0 0 32 32" style="enable-background:new 0 0 32 32;" xml:space="preserve">
<style type="text/css">
	.st0{fill:#274CA3;}
	.st1{fill:#410B95;}
	.st2{fill:#712799;}
	.st3{fill:#F89500;}
	.st4{fill:url(#SVGID_1_);}
	.st5{fill:url(#SVGID_2_);}
	.st6{fill:url(#SVGID_3_);}
	.st7{fill:url(#SVGID_4_);}
	.st8{fill:none;stroke:#F89500;stroke-width:13.4318;stroke-linecap:round;stroke-miterlimit:10;}
	.st9{fill:url(#SVGID_5_);}
	.st10{fill:#FAFBFC;}
	.st11{fill:none;}
	.st12{fill:#F89500;stroke:#FFFFFF;stroke-width:1.9188;stroke-miterlimit:10;}
	.st13{fill:#034AEA;}
	.st14{fill:#2500FF;}
	.st15{fill:#F00100;}
	.st16{fill:#F20500;}
	.st17{fill:none;stroke:#2500FF;stroke-width:6;stroke-miterlimit:10;}
	.st18{fill:none;stroke:#2110FF;stroke-width:0.6897;stroke-miterlimit:10;}
	.st19{fill:none;stroke:#2110FF;stroke-width:0.6436;stroke-miterlimit:10;}
	.st20{fill:none;stroke:#2110FF;stroke-width:0.6289;stroke-miterlimit:10;}
	.st21{fill:none;stroke:#F7F2F2;stroke-width:6;stroke-miterlimit:10;}
	.st22{fill:#F7F2F2;}
</style>
<g>
	<g>
		<g>
			<path class="st0" d="M25.17,14.95v0.3h-7l-0.12-0.02c0-0.02,0-0.03-0.01-0.05c0-0.01,0-0.02,0-0.02
				c-0.01-0.02-0.02-0.04-0.03-0.05c-0.01-0.01-0.02-0.02-0.03-0.03c-0.01-0.01-0.02-0.02-0.02-0.02c-0.01-0.01-0.02-0.02-0.04-0.02
				h0c0,0,0,0-0.01,0c-0.01,0-0.02-0.01-0.03-0.01c-0.01,0-0.03,0-0.04,0h-0.68c-0.47,0-0.91,0.09-1.32,0.24
				c-0.05,0.02-0.1,0.04-0.15,0.06l-0.08,0.04c-0.04,0.02-0.09,0.04-0.13,0.07c-0.02,0.01-0.04,0.02-0.07,0.03
				c-0.01,0.01-0.02,0.02-0.03,0.02c-0.03,0.02-0.05,0.03-0.07,0.04c-0.06,0.03-0.11,0.07-0.17,0.1c0,0,0,0,0,0
				c-0.03,0.02-0.06,0.04-0.09,0.06c0,0,0,0-0.01,0.01c-0.03,0.02-0.06,0.04-0.09,0.06c-0.16,0.12-0.31,0.25-0.45,0.39
				c-0.02,0.02-0.05,0.05-0.07,0.07c-0.05,0.05-0.1,0.11-0.15,0.17c-0.02,0.03-0.04,0.05-0.06,0.08c0,0.01-0.01,0.01-0.02,0.02
				c-0.02,0.02-0.03,0.05-0.05,0.07c-0.08,0.11-0.16,0.22-0.23,0.34c-0.02,0.03-0.03,0.06-0.05,0.09c-0.02,0.04-0.05,0.08-0.07,0.12
				c-0.02,0.04-0.04,0.08-0.06,0.12c-0.04,0.09-0.07,0.18-0.11,0.27c-0.01,0.03-0.02,0.06-0.03,0.09c-0.01,0.02-0.02,0.05-0.03,0.07
				c-0.01,0.04-0.02,0.08-0.03,0.12c-0.01,0.03-0.02,0.05-0.02,0.08c-0.01,0.03-0.02,0.07-0.02,0.1c-0.02,0.08-0.03,0.17-0.05,0.25
				c0,0.05-0.01,0.1-0.02,0.14v0.01c0,0.04-0.01,0.07-0.01,0.11c0,0.03,0,0.07-0.01,0.1c0,0.03,0,0.07,0,0.11c0,0.04,0,0.08,0,0.12
				v-3.53h-0.03v-1.83c0-1.35,0.82-2.56,2.04-3.02h5.23c0.25,0,0.5,0.02,0.74,0.06c0.01,0,0.03,0,0.04,0.01
				C23.54,10.84,25.17,12.7,25.17,14.95z"/>
		</g>
	</g>
	<g>
		<g>
			<path class="st1" d="M23.55,27.09c-0.83,0.31-1.88,0.63-3.11,0.82c-0.04,0.01-0.08,0.01-0.12,0.02
				c-0.78,0.08-1.42,0.08-1.96,0.04c-0.14-0.01-0.28-0.02-0.41-0.04v-0.04c-0.02,0.02-0.05,0.03-0.08,0.03c0,0,0,0,0,0
				c-0.01,0-0.02,0-0.03,0h-0.34c-0.02,0-0.05,0-0.07,0h-0.01c-0.05,0-0.09,0-0.14,0c-0.09,0-0.18-0.01-0.27-0.02l0-0.03l-0.1,0.02
				c-0.01,0-0.01,0-0.02,0c-0.31-0.05-0.61-0.13-0.89-0.24c-1.34-0.52-2.34-1.74-2.56-3.19c0,0,0-0.01,0-0.02
				c-0.02-0.13-0.03-0.26-0.04-0.39c0-0.07-0.01-0.15-0.01-0.22v-5.05c0-0.04,0-0.08,0-0.12c0-0.03,0-0.07,0-0.11
				c0-0.03,0.01-0.06,0.01-0.1c0-0.03,0.01-0.07,0.01-0.11v-0.01c0.01-0.05,0.02-0.1,0.02-0.14c0.02-0.08,0.03-0.17,0.05-0.25
				c0.01-0.03,0.02-0.06,0.02-0.1c0.01-0.03,0.02-0.05,0.02-0.08c0.01-0.04,0.02-0.08,0.03-0.12c0.01-0.02,0.02-0.05,0.03-0.07
				c0.01-0.03,0.02-0.06,0.03-0.09c0.03-0.09,0.07-0.18,0.11-0.27c0.02-0.04,0.04-0.08,0.06-0.12c0.02-0.04,0.04-0.08,0.07-0.12
				c0.02-0.03,0.03-0.06,0.05-0.09c0.07-0.12,0.14-0.23,0.23-0.34c0.02-0.02,0.03-0.05,0.05-0.07c0-0.01,0.01-0.01,0.02-0.02
				c0.02-0.03,0.04-0.05,0.06-0.08c0.05-0.06,0.1-0.12,0.15-0.17c0.02-0.02,0.04-0.05,0.07-0.07c0.14-0.14,0.29-0.28,0.45-0.39
				c0.03-0.02,0.05-0.04,0.09-0.06c0,0,0,0,0.01-0.01c0.03-0.02,0.06-0.04,0.09-0.06c0,0,0,0,0,0c0.06-0.03,0.11-0.07,0.17-0.1
				c0.02-0.02,0.05-0.03,0.07-0.04c0.01,0,0.02-0.01,0.03-0.02c0.02-0.01,0.05-0.02,0.07-0.03c0.05-0.02,0.09-0.05,0.13-0.07
				l0.08-0.04c0.05-0.02,0.1-0.04,0.15-0.06c0.41-0.15,0.86-0.24,1.32-0.24h0.68c0.02,0,0.03,0,0.04,0c0.01,0,0.02,0.01,0.03,0.01
				c0,0,0,0,0.01,0h0c0.02,0,0.03,0.01,0.04,0.02c0.01,0,0.02,0.01,0.02,0.02c0.01,0.01,0.02,0.02,0.03,0.03
				c0.01,0.02,0.02,0.03,0.03,0.05c0,0.01,0,0.02,0,0.02c0,0.02,0.01,0.03,0.01,0.05l0.12,0.02v6.65c0,2.87,2.33,5.2,5.2,5.2H23.55z
				"/>
		</g>
	</g>
	<g>
		<g>
			<circle class="st2" cx="16.02" cy="6.63" r="2.63"/>
		</g>
	</g>
	<g>
		<g>
			<path class="st3" d="M15.01,10.25c-1.18,0.57-1.95,1.8-1.95,3.17v1.7h-1.83c-2.43,0-4.4-2.05-4.4-4.56v-0.31H15.01z"/>
		</g>
	</g>
</g>
<text transform="matrix(1 0 0 1 83.3486 73.8965)"><tspan x="0" y="0" style="fill:#F9F9F9; font-family:'PauraqueSerifRough-Regular'; font-size:56.8403px;">TWIST IN </tspan><tspan x="53.77" y="55.77" style="fill:#F9F9F9; font-family:'PauraqueSerifRough-Regular'; font-size:56.8403px;">TECH </tspan></text>
<g>
	<linearGradient id="SVGID_1_" gradientUnits="userSpaceOnUse" x1="705.8509" y1="9.1111" x2="1106.1709" y2="168.9511">
		<stop  offset="0" style="stop-color:#F89500"/>
		<stop  offset="1" style="stop-color:#410B95"/>
	</linearGradient>
	<path class="st4" d="M942.45,16v-0.53c0.14-14.27-7.37-27.5-19.66-34.73l-88.24-51.99l-27.34-30.76c-2.48-2.76-6.72-3.01-9.5-0.54
		c-2.77,2.46-3.02,6.71-0.56,9.5l6.04,6.8c-6.75-0.98-13.71-0.2-20.15,2.31l-57.66-57.67c-2.63-2.62-6.89-2.62-9.51,0
		c-2.31,2.29-2.57,5.89-0.84,8.49c0.96,0.4,1.86,0.99,2.65,1.72l28.13,26.3c3.52,3.28,3.52,8.58,0,11.83
		c-1.75,1.63-4.03,2.46-6.34,2.46c-2.28,0-4.55-0.84-6.32-2.46l-7.34-6.85l-0.17,0.17l-8.86-8.63l-11.76-11
		c-0.64-0.6-1.16-1.25-1.53-1.95l-8.89-8.64c-2.66-2.59-6.91-2.53-9.5,0.14c-1.75,1.78-2.28,4.31-1.63,6.55l44.91,44.92l16.28,15.83
		l-0.29,0.15l6.66,6.66c1.99-0.8,4.13-1.25,6.38-1.32c9.84-0.31,18.52,7.07,19.67,16.85c1.67,14.1-11.99,25.63-26.49,20.13
		c-5.94-2.25-10.22-7.57-11.37-13.81c-0.73-3.94-0.38-7.68,0.94-10.98l-9.65-9.65l-0.77,0.42l-91.77-88.38
		c-2.7-2.57-6.92-2.49-9.5,0.17c-2.57,2.66-2.49,6.92,0.17,9.5l65.84,63.4c2.19-0.82,4.6-1.21,7.12-1.05
		c7.51,0.5,13.95,5.98,15.67,13.31c0.77,3.25,0.53,6.45-0.41,9.3l0.68,0.64l-1.16,0.65c-2.42,5.82-7.96,10.04-14.52,10.55
		c-0.46,0.05-0.93,0.06-1.41,0.06c-0.84,0-1.67-0.06-2.49-0.17c-8.35-1.21-14.78-8.41-14.78-17.1c0-0.33,0-0.65,0.03-0.96
		l-42.35-41.27c-2.65-2.59-6.91-2.54-9.5,0.12c-2.6,2.65-2.54,6.91,0.12,9.51l24.85,24.21l7.71,7.27c3.49,3.28,3.62,8.75,0.36,12.22
		c-1.72,1.78-4,2.7-6.27,2.7c-2.14,0-4.26-0.77-5.93-2.34l-17.04-16.11c-0.98-0.91-1.69-2.03-2.14-3.21l-0.02-0.02
		c-2.76-2.48-7-2.26-9.5,0.48c-2.48,2.77-2.26,7,0.48,9.5l37.61,33.99l2.08,1.86l-0.11,0.09l3.59,3.53c1.15-0.2,2.34-0.33,3.55-0.33
		c11.3,0,20.32,9.78,19.08,21.33c-0.97,8.99-8.34,16.19-17.35,16.99c-10.6,0.93-19.64-6.8-20.78-16.93
		c-0.09-0.71-0.12-1.44-0.12-2.18c0-2,0.29-3.93,0.87-5.73l-30.66-32.38l-23.96-23.96c-2.23-0.68-4.72-0.15-6.52,1.55
		c-2.7,2.56-2.8,6.8-0.25,9.5l38.63,40.8l-0.9,0.9l6.48,6.43c2.62,2.63,2.62,6.86,0.02,9.5c-1.33,1.32-3.05,1.98-4.76,1.98
		c-0.7,0-1.36-0.11-2.01-0.31l-54.85-51.54c-2.7-2.54-6.96-2.42-9.5,0.28c-2.53,2.71-2.42,6.97,0.29,9.5l86.66,81.47v0.02
		l12.39,11.01c4.65,4.12,4.12,11.53-1.05,14.96l-0.74,0.5c-3.69,2.46-8.58,2.06-11.79-0.99l-7.65-7.25
		c-1.83-0.11-3.66,0.56-5.03,1.94c-2.62,2.62-2.62,6.88,0,9.51l13.51,13.51l-0.33,36.64c-0.12,14.25,7.37,27.5,19.66,34.73
		l105.04,61.87c12.28,7.23,27.5,7.37,39.9,0.36l106.13-60.04c7.87-4.45,13.86-11.35,17.23-19.46h273.63V16H942.45z M885.96,143.51
		l-80.38,47.09c-5.22,3.07-11.66,3.1-16.92,0.11l-80.99-46.07c-5.25-2.99-8.5-8.55-8.55-14.59l-0.59-93.16
		c-0.05-6.04,3.14-11.65,8.37-14.72l80.38-47.09c5.22-3.05,11.66-3.1,16.92-0.11l80.99,46.07c5.25,2.99,8.52,8.55,8.55,14.59
		l0.59,93.18C894.37,134.85,891.18,140.46,885.96,143.51z"/>
	<g>
		<g>
			<g>
				<radialGradient id="SVGID_2_" cx="715.0858" cy="-115.0513" r="1.7731" gradientUnits="userSpaceOnUse">
					<stop  offset="0.7388" style="stop-color:#FFFFFF;stop-opacity:0"/>
					<stop  offset="0.8057" style="stop-color:#FFFFFF;stop-opacity:0.4301"/>
					<stop  offset="0.8165" style="stop-color:#FFFFFF;stop-opacity:0.5"/>
					<stop  offset="0.8231" style="stop-color:#DBC01F"/>
					<stop  offset="0.8304" style="stop-color:#F1DC3A"/>
					<stop  offset="0.835" style="stop-color:#F5E13F"/>
					<stop  offset="0.8386" style="stop-color:#DBC01F"/>
					<stop  offset="0.8523" style="stop-color:#E1CB46"/>
					<stop  offset="0.872" style="stop-color:#E9D976"/>
					<stop  offset="0.8922" style="stop-color:#F0E4A0"/>
					<stop  offset="0.9126" style="stop-color:#F5EEC3"/>
					<stop  offset="0.9332" style="stop-color:#FAF5DD"/>
					<stop  offset="0.9543" style="stop-color:#FDFBF0"/>
					<stop  offset="0.976" style="stop-color:#FEFEFB"/>
					<stop  offset="0.9993" style="stop-color:#FFFFFF"/>
				</radialGradient>
				<path class="st5" d="M716.8-108.58l-11.76-11c-0.64-0.6-1.16-1.25-1.53-1.95L716.8-108.58z"/>
				<radialGradient id="SVGID_3_" cx="869.14" cy="82.8405" r="29.8988" gradientUnits="userSpaceOnUse">
					<stop  offset="0.7388" style="stop-color:#FFFFFF;stop-opacity:0"/>
					<stop  offset="0.8057" style="stop-color:#FFFFFF;stop-opacity:0.4301"/>
					<stop  offset="0.8165" style="stop-color:#FFFFFF;stop-opacity:0.5"/>
					<stop  offset="0.8231" style="stop-color:#DBC01F"/>
					<stop  offset="0.8304" style="stop-color:#F1DC3A"/>
					<stop  offset="0.835" style="stop-color:#F5E13F"/>
					<stop  offset="0.8386" style="stop-color:#DBC01F"/>
					<stop  offset="0.8523" style="stop-color:#E1CB46"/>
					<stop  offset="0.872" style="stop-color:#E9D976"/>
					<stop  offset="0.8922" style="stop-color:#F0E4A0"/>
					<stop  offset="0.9126" style="stop-color:#F5EEC3"/>
					<stop  offset="0.9332" style="stop-color:#FAF5DD"/>
					<stop  offset="0.9543" style="stop-color:#FDFBF0"/>
					<stop  offset="0.976" style="stop-color:#FEFEFB"/>
					<stop  offset="0.9993" style="stop-color:#FFFFFF"/>
				</radialGradient>
				<path class="st6" d="M894.32,128.81c0.05,6.04-3.14,11.65-8.37,14.7l-80.38,47.09c-5.22,3.07-11.66,3.1-16.92,0.11l-80.99-46.07
					c-5.25-2.99-8.5-8.55-8.55-14.59l-0.59-93.16c-0.05-6.04,3.14-11.65,8.37-14.72l80.38-47.09c5.22-3.05,11.66-3.1,16.92-0.11
					l80.99,46.07c5.25,2.99,8.52,8.55,8.55,14.59L894.32,128.81z"/>
				<g>
					<radialGradient id="SVGID_4_" cx="584.6058" cy="-43.0417" r="269.0292" gradientUnits="userSpaceOnUse">
						<stop  offset="0.7388" style="stop-color:#FFFFFF;stop-opacity:0"/>
						<stop  offset="0.8057" style="stop-color:#FFFFFF;stop-opacity:0.4301"/>
						<stop  offset="0.8165" style="stop-color:#FFFFFF;stop-opacity:0.5"/>
						<stop  offset="0.8231" style="stop-color:#DBC01F"/>
						<stop  offset="0.8304" style="stop-color:#F1DC3A"/>
						<stop  offset="0.835" style="stop-color:#F5E13F"/>
						<stop  offset="0.8386" style="stop-color:#DBC01F"/>
						<stop  offset="0.8523" style="stop-color:#E1CB46"/>
						<stop  offset="0.872" style="stop-color:#E9D976"/>
						<stop  offset="0.8922" style="stop-color:#F0E4A0"/>
						<stop  offset="0.9126" style="stop-color:#F5EEC3"/>
						<stop  offset="0.9332" style="stop-color:#FAF5DD"/>
						<stop  offset="0.9543" style="stop-color:#FDFBF0"/>
						<stop  offset="0.976" style="stop-color:#FEFEFB"/>
						<stop  offset="0.9993" style="stop-color:#FFFFFF"/>
					</radialGradient>
					<path class="st7" d="M621.77-31.06l-23.96-23.96c1.1,0.31,2.12,0.91,2.97,1.8L621.77-31.06z"/>
				</g>
				<circle class="st3" cx="700.49" cy="-53.4" r="7.68"/>
				<line class="st8" x1="535.47" y1="-59.15" x2="549.86" y2="-44.76"/>
				<line class="st8" x1="594.95" y1="-91.77" x2="616.06" y2="-70.67"/>
				<line class="st8" x1="550.82" y1="-132.07" x2="571.92" y2="-110.96"/>
				<line class="st8" x1="625.65" y1="-187.71" x2="646.76" y2="-166.61"/>
				<g>
					<radialGradient id="SVGID_5_" cx="628.4962" cy="-115.0513" r="1107.6036" gradientUnits="userSpaceOnUse">
						<stop  offset="0.7388" style="stop-color:#FFFFFF;stop-opacity:0"/>
						<stop  offset="0.8057" style="stop-color:#FFFFFF;stop-opacity:0.4301"/>
						<stop  offset="0.8165" style="stop-color:#FFFFFF;stop-opacity:0.5"/>
						<stop  offset="0.8231" style="stop-color:#DBC01F"/>
						<stop  offset="0.8304" style="stop-color:#F1DC3A"/>
						<stop  offset="0.835" style="stop-color:#F5E13F"/>
						<stop  offset="0.8386" style="stop-color:#DBC01F"/>
						<stop  offset="0.8523" style="stop-color:#E1CB46"/>
						<stop  offset="0.872" style="stop-color:#E9D976"/>
						<stop  offset="0.8922" style="stop-color:#F0E4A0"/>
						<stop  offset="0.9126" style="stop-color:#F5EEC3"/>
						<stop  offset="0.9332" style="stop-color:#FAF5DD"/>
						<stop  offset="0.9543" style="stop-color:#FDFBF0"/>
						<stop  offset="0.976" style="stop-color:#FEFEFB"/>
						<stop  offset="0.9993" style="stop-color:#FFFFFF"/>
					</radialGradient>
					<path class="st9" d="M716.8-108.58l-11.76-11c-0.64-0.6-1.16-1.25-1.53-1.95L716.8-108.58z"/>
				</g>
			</g>
			<circle class="st3" cx="758.05" cy="-38.05" r="8.63"/>
			<circle class="st3" cx="670.74" cy="7.05" r="8.63"/>
			<g>
				<path class="st3" d="M690.89-174.28c-2.97,0-5.79,0.77-8.25,2.11c-0.35-0.81-0.86-1.57-1.55-2.21l-30.7-28.78
					c-2.71-2.55-6.95-2.42-9.48,0.31c-2.55,2.71-2.4,6.95,0.31,9.48l30.7,28.78c0.81,0.79,1.77,1.3,2.78,1.57v0.02
					c-0.69,1.86-1.07,3.88-1.07,5.99c0,9.54,7.73,17.27,17.27,17.27c9.54,0,17.27-7.73,17.27-17.27
					C708.16-166.55,700.43-174.28,690.89-174.28z M690.89-148.38c-4.78,0-8.63-3.86-8.63-8.63c0-4.78,3.86-8.63,8.63-8.63
					c4.78,0,8.63,3.86,8.63,8.63C699.53-152.24,695.67-148.38,690.89-148.38z"/>
			</g>
			<g>
				<path class="st3" d="M607.31-137.82c-2.97,0-5.79,0.77-8.25,2.11c-0.35-0.81-0.86-1.57-1.55-2.21l-47.97-47.97
					c-2.71-2.55-6.95-2.42-9.48,0.31c-2.55,2.71-2.4,6.95,0.31,9.48l47.97,47.97c0.81,0.79,1.77,1.3,2.78,1.57v0.02
					c-0.69,1.86-1.07,3.88-1.07,5.99c0,9.54,7.73,17.27,17.27,17.27c9.54,0,17.27-7.73,17.27-17.27
					C624.58-130.09,616.84-137.82,607.31-137.82z M607.31-111.92c-4.78,0-8.63-3.86-8.63-8.63c0-4.78,3.86-8.63,8.63-8.63
					c4.78,0,8.63,3.86,8.63,8.63C615.94-115.78,612.09-111.92,607.31-111.92z"/>
			</g>
			<g>
				<path class="st3" d="M572.83-85.44c-2.97-0.1-5.81,0.58-8.33,1.84c-0.31-0.83-0.81-1.61-1.48-2.26l-33.56-35.54
					c-2.63-2.65-6.87-2.65-9.48-0.02c-2.65,2.63-2.63,6.87-0.02,9.5l33.58,35.54c0.77,0.81,1.71,1.36,2.72,1.67v0.02
					c-0.75,1.82-1.21,3.84-1.27,5.95c-0.33,9.52,7.14,17.5,16.67,17.83c9.54,0.31,17.52-7.16,17.85-16.69
					C589.83-77.15,582.36-85.13,572.83-85.44z M571.96-59.56c-4.78-0.15-8.5-4.14-8.35-8.92c0.17-4.76,4.14-8.5,8.92-8.33
					c4.78,0.15,8.5,4.13,8.35,8.9C580.73-63.12,576.74-59.4,571.96-59.56z"/>
			</g>
		</g>
		<g>
			<path class="st10" d="M894.32,128.81c0.05,6.04-3.14,11.65-8.37,14.7l-80.38,47.09c-5.22,3.07-11.66,3.1-16.92,0.11l-80.99-46.07
				c-5.25-2.99-8.5-8.55-8.55-14.59l-0.59-93.16c-0.05-6.04,3.14-11.65,8.37-14.72l80.38-47.09c5.22-3.05,11.66-3.1,16.92-0.11
				l80.99,46.07c5.25,2.99,8.52,8.55,8.55,14.59L894.32,128.81z"/>
			<g>
				<g>
					<path class="st0" d="M858.07,75.89v1.98h-46.31l-0.8-0.13c0-0.13-0.03-0.23-0.05-0.33c0-0.05-0.03-0.1-0.03-0.15
						c-0.05-0.13-0.1-0.26-0.18-0.36c-0.08-0.08-0.13-0.15-0.21-0.21c-0.05-0.05-0.1-0.1-0.15-0.13c-0.08-0.08-0.15-0.13-0.26-0.15
						h-0.03c-0.03-0.03-0.03-0.03-0.05-0.03c-0.08-0.03-0.13-0.05-0.21-0.08c-0.08-0.03-0.18-0.03-0.28-0.03h-4.49
						c-3.08,0-6.04,0.56-8.76,1.59c-0.33,0.13-0.67,0.26-1.03,0.41c-0.18,0.08-0.36,0.15-0.54,0.23c-0.28,0.13-0.57,0.28-0.87,0.44
						c-0.13,0.05-0.28,0.13-0.44,0.21c-0.08,0.05-0.15,0.1-0.23,0.13c-0.18,0.1-0.33,0.18-0.49,0.28c-0.39,0.21-0.74,0.44-1.13,0.67
						c0,0,0,0.03-0.03,0.03c-0.18,0.13-0.39,0.26-0.59,0.39c-0.03,0.03-0.03,0.03-0.05,0.05c-0.21,0.13-0.39,0.26-0.57,0.41
						c-1.08,0.77-2.08,1.64-3.01,2.59c-0.15,0.15-0.31,0.31-0.44,0.46c-0.36,0.36-0.69,0.74-1.03,1.13
						c-0.13,0.18-0.28,0.33-0.41,0.51c-0.03,0.05-0.08,0.08-0.1,0.13c-0.1,0.15-0.23,0.31-0.33,0.46c-0.54,0.72-1.05,1.46-1.49,2.26
						c-0.13,0.18-0.23,0.39-0.33,0.59c-0.15,0.28-0.31,0.54-0.44,0.82c-0.13,0.26-0.26,0.51-0.39,0.77
						c-0.26,0.57-0.49,1.16-0.72,1.77c-0.08,0.18-0.15,0.39-0.21,0.59c-0.05,0.15-0.1,0.33-0.18,0.49
						c-0.08,0.26-0.15,0.51-0.21,0.77c-0.05,0.18-0.1,0.33-0.15,0.51c-0.05,0.23-0.1,0.44-0.15,0.64c-0.13,0.54-0.23,1.1-0.33,1.67
						c-0.03,0.31-0.08,0.64-0.13,0.95v0.08c-0.03,0.26-0.05,0.49-0.08,0.72c0,0.23-0.03,0.44-0.05,0.64c0,0.23-0.03,0.49-0.03,0.72
						c0,0.26-0.03,0.54-0.03,0.82V77.86h-1.57V66.05c0-9.37,6.01-17.34,14.38-20.24h35.08c1.67,0,3.29,0.13,4.88,0.39
						c0.08,0.03,0.18,0.03,0.26,0.05C847.31,48.69,858.07,61.01,858.07,75.89z"/>
				</g>
				<g>
					<path class="st1" d="M847.38,156.23c-5.5,2.05-12.43,4.16-20.6,5.42c-0.26,0.05-0.51,0.08-0.77,0.13
						c-5.16,0.54-9.37,0.54-12.97,0.28c-0.95-0.05-1.87-0.13-2.75-0.26v-0.28c-0.15,0.13-0.33,0.21-0.54,0.23c-0.03,0-0.03,0-0.03,0
						c-0.05,0-0.13,0.03-0.21,0.03h-2.26c-0.15,0-0.31,0-0.46-0.03h-0.08c-0.31,0-0.62,0-0.92-0.03c-0.59-0.03-1.18-0.08-1.77-0.13
						l0.03-0.18l-0.67,0.1c-0.05-0.03-0.08-0.03-0.13-0.03c-2.05-0.31-4.03-0.85-5.91-1.62c-8.86-3.47-15.46-11.48-16.93-21.14
						c-0.03-0.03-0.03-0.08-0.03-0.1c-0.13-0.85-0.21-1.7-0.26-2.57c-0.03-0.49-0.05-0.98-0.05-1.46v-33.39
						c0-0.28,0.03-0.56,0.03-0.82c0-0.23,0.03-0.49,0.03-0.72c0.03-0.21,0.05-0.41,0.05-0.64c0.03-0.23,0.05-0.46,0.08-0.72v-0.08
						c0.05-0.31,0.1-0.64,0.13-0.95c0.1-0.57,0.21-1.13,0.33-1.67c0.05-0.21,0.1-0.41,0.15-0.64c0.05-0.18,0.1-0.33,0.15-0.51
						c0.05-0.26,0.13-0.51,0.21-0.77c0.08-0.15,0.13-0.33,0.18-0.49c0.05-0.21,0.13-0.41,0.21-0.59c0.23-0.62,0.46-1.21,0.72-1.77
						c0.13-0.26,0.26-0.51,0.39-0.77c0.13-0.28,0.28-0.54,0.44-0.82c0.1-0.21,0.21-0.41,0.33-0.59c0.44-0.8,0.95-1.54,1.49-2.26
						c0.1-0.15,0.23-0.31,0.33-0.46c0.03-0.05,0.08-0.08,0.1-0.13c0.13-0.18,0.28-0.33,0.41-0.51c0.33-0.39,0.67-0.77,1.03-1.13
						c0.13-0.15,0.28-0.31,0.44-0.46c0.92-0.95,1.93-1.82,3.01-2.59c0.18-0.15,0.36-0.28,0.57-0.41c0.03-0.03,0.03-0.03,0.05-0.05
						c0.21-0.13,0.41-0.26,0.59-0.39c0.03,0,0.03-0.03,0.03-0.03c0.39-0.23,0.74-0.46,1.13-0.67c0.15-0.1,0.31-0.18,0.49-0.28
						c0.08-0.03,0.15-0.08,0.23-0.13c0.15-0.08,0.31-0.15,0.44-0.21c0.31-0.15,0.59-0.31,0.87-0.44c0.18-0.08,0.36-0.15,0.54-0.23
						c0.36-0.15,0.69-0.28,1.03-0.41c2.72-1.03,5.68-1.59,8.76-1.59h4.49c0.1,0,0.21,0,0.28,0.03c0.08,0.03,0.13,0.05,0.21,0.08
						l-0.33-0.03v2.8h2.08v42.71c0,18.98,15.39,34.37,34.37,34.37H847.38z"/>
					<path d="M802.13,141.54l-0.02,0.13c-0.17-0.02-0.33-0.04-0.48-0.06L802.13,141.54z"/>
				</g>
				<g>
					<path class="st1" d="M802.13,141.54l-0.02,0.13c-0.17-0.02-0.33-0.04-0.48-0.06L802.13,141.54z"/>
					<path class="st1" d="M806.79,141.81v0.02c-0.1,0-0.17,0-0.27-0.02H806.79z"/>
					<path class="st1" d="M807.88,79.12v0.96h-1.55v-2.09l0.25,0.02l0.04,0.02h0.02c0.08,0.02,0.13,0.06,0.19,0.12
						c0.04,0.02,0.08,0.06,0.12,0.1c0.06,0.04,0.1,0.1,0.15,0.15c0.06,0.08,0.1,0.17,0.13,0.27c0,0.04,0.02,0.08,0.02,0.12
						c0.02,0.08,0.04,0.17,0.04,0.25v0.1H807.88z"/>
				</g>
				<g>
					<polyline class="st11" points="801.63,141.62 802.13,141.54 802.11,141.68 					"/>
					<path d="M806.79,141.81v0.02c-0.1,0-0.17,0-0.27-0.02H806.79z"/>
				</g>
				<g>
					<path d="M802.13,141.54l-0.02,0.13c-0.17-0.02-0.33-0.04-0.48-0.06L802.13,141.54z"/>
					<path d="M806.79,141.81v0.02c-0.1,0-0.17,0-0.27-0.02H806.79z"/>
				</g>
				<g>
					<circle class="st2" cx="797.52" cy="20.87" r="17.41"/>
				</g>
				<g>
					<path class="st12" d="M792.32,45.8c-8.38,2.9-14.4,10.87-14.4,20.25v11.81h-13.06c-16.61,0-30.08-13.46-30.08-30.08V45.8
						H792.32z"/>
				</g>
			</g>
		</g>
	</g>
	<text transform="matrix(1 0 0 1 932.3486 73.8965)"><tspan x="0" y="0" style="fill:#F9F9F9; font-family:'PauraqueSerifRough-Regular'; font-size:56.8403px;">TWIST IN </tspan><tspan x="53.77" y="55.77" style="fill:#F9F9F9; font-family:'PauraqueSerifRough-Regular'; font-size:56.8403px;">TECH </tspan></text>
</g>
<g>
	<g>
		<path class="st13" d="M1870-50.46c0,92.58-75.02,167.6-167.6,167.6c-69.6,0-129.24-42.37-154.56-102.75
			c10.49,1.35,21.17,2.19,31.95,2.44c3.39-0.58,6.78-1.2,10.2-1.89c7.73-1.57,15.49-3.21,23.18-5.14
			c15.44-3.71,30.78-8.01,45.9-12.97c3.9-1.27,7.84-2.59,11.7-3.97l0.33,38.84c-14.8,6.92-29.88,13.3-45.22,19.06
			c-2.22,0.87-4.44,1.67-6.67,2.51c22.78,18.33,51.71,29.26,83.19,29.26c73.45,0,132.99-59.54,132.99-132.99
			c0-13.37-1.97-26.27-5.69-38.44c-9.11,12.86-19.78,24.63-31,35.78c-11.99,11.91-25.07,22.73-38.66,32.75
			c-18.91,14.03-38.95,26.38-59.68,37.42l-0.19-35.45c15.93-6.56,31.48-14.03,46.5-22.48c13.88-7.8,27.36-16.36,39.97-26.12
			c12.57-9.73,24.73-20.19,35.34-32.18c10.67-11.91,20.29-24.85,28.2-38.98c7.72-14.21,13.74-29.41,18-45.29
			c-2.26,16.25-6.38,32.39-12.46,47.91c-1.24,3.06-2.55,6.05-3.94,9.04C1863.44-103.66,1870-77.83,1870-50.46z"/>
		<path class="st14" d="M1833.89-154.41c-5.28,8.6-10.96,16.87-17.09,24.85c-0.65,0.91-1.34,1.82-2.07,2.69
			c-0.73,0.62-1.46,1.24-2.19,1.86c-1.35,1.13-2.7,2.22-4.08,3.39l-8.64,6.96c-5.79,4.55-11.62,9.03-17.48,13.37
			c-11.81,8.71-23.8,17.02-36.04,24.92c-15.08,9.73-30.46,18.95-46.27,27.44l-0.18-38.41c7.9-6.41,15.66-12.97,23.24-19.67
			c0.22-0.22,0.48-0.4,0.69-0.62c9.88-8.78,19.46-17.85,28.75-27.14l0.58-0.59c4.85-4.84,9.59-9.76,14.25-14.75l6.89-7.51
			c0.87-0.98,1.78-2,2.66-2.99c-21.25-14.43-46.9-22.84-74.51-22.84c-73.46,0-132.99,59.53-132.99,132.99
			c0,12.35,1.67,24.34,4.88,35.67c3.31-1.1,6.56-2.26,9.8-3.43c13.04-4.73,25.58-10.71,37.86-17.09
			c12.24-6.37,24.12-13.55,35.63-21.13c4.3-2.8,8.53-5.68,12.72-8.63l0.25,30.82c-0.18,0.07-0.4,0.18-0.58,0.26
			c-13.23,6.08-26.67,11.66-40.45,16.36c-13.73,4.66-27.65,8.85-41.9,11.73c-14.17,2.88-28.53,5.03-42.92,5.5
			c-14.39,0.51-28.71-0.33-42.7-2.7c12.1,0.22,24.05-0.72,35.82-2.62c-2.63-12.9-3.03-31.84-3.03-44.74
			c0-92.59,75.02-167.61,167.61-167.61C1755.7-218.07,1803.18-193.18,1833.89-154.41z"/>
		<path class="st15" d="M1814.73-126.87c-0.59,0.8-1.21,1.6-1.82,2.37c-0.11-0.18-0.22-0.33-0.37-0.51
			C1813.27-125.63,1814-126.25,1814.73-126.87z"/>
		<path class="st16" d="M1817.28-129.09c-0.88,0.76-1.71,1.53-2.55,2.22c0.73-0.87,1.42-1.78,2.07-2.69L1817.28-129.09z"/>
		<path class="st17" d="M1756.52-134.77c-0.49,0.55-0.99,1.1-1.49,1.65c-12.93,8.72-21.96,17.23-31.25,25.49h-24.04l0.11,20.29
			l0.18,38.41l0.14,30.53l0.19,35.45l0.21,37.97l-29.14,11.58l-0.33-34.9l-0.33-38.84l-0.22-27.11l-0.25-30.82l-0.37-42.56
			l-44.51,0.69l-12.36-27.83H1756.52z"/>
		<path class="st17" d="M1757.53-134.77c-0.85,0.55-1.68,1.1-2.5,1.65c0.5-0.55,1-1.1,1.49-1.65H1757.53z"/>
	</g>
	<g>
		<rect x="1603.53" y="191.93" class="st13" width="32.79" height="46.46"/>
		<rect x="1693.7" y="191.93" class="st13" width="34.16" height="46.46"/>
		<rect x="1742.89" y="194.66" class="st13" width="36.89" height="42.36"/>
		<rect x="1651.35" y="191.93" class="st13" width="28.69" height="46.46"/>
		<text transform="matrix(1 0 0 1 1578.3691 175.7345)" style="font-family:'Lato-Black'; font-size:50.1348px;">TWIST IN</text>
		<text transform="matrix(1 0 0 1 1604.6328 235.0509)"><tspan x="0" y="0" style="fill:#F4EDED; font-family:'Lato-Black'; font-size:50.1348px; letter-spacing:15;">TECH</tspan><tspan x="191.84" y="0" style="font-family:'Lato-Black'; font-size:50.1348px; letter-spacing:15;"> </tspan></text>
	</g>
</g>
<g>
	<rect x="1797" y="139.5" width="37" height="1"/>
</g>
<g>
	<rect x="1797" y="159" width="26" height="1"/>
</g>
<g>
	<rect x="1797" y="174" width="52" height="1"/>
</g>
<circle class="st18" cx="1855.29" cy="174.53" r="6.21"/>
<circle class="st19" cx="1828.71" cy="159.08" r="5.79"/>
<circle class="st20" cx="1839.84" cy="140.47" r="5.66"/>
<path class="st21" d="M1757.53-134.77h-1.01"/>
<g>
	<polygon class="st22" points="1758.64,-104.64 1721,-105 1724,-111 1752.42,-110.64 1759.64,-131.78 1749.03,-131.77 
		1755.32,-137.77 1756.53,-137.78 1768.42,-137.78 	"/>
</g>
</svg>
